<svg width="136" height="136" viewBox="0 0 136 136" fill="none" xmlns="http://www.w3.org/2000/svg">
<path d="M132.91 81.4997H119.777L107.611 77.4501L103.66 67.5679V60.1247C103.645 54.9776 99.7609 50.6655 94.6446 50.1129C94.6446 49.8042 94.66 49.4955 94.66 49.1878V16.2498C94.66 15.2555 94.0085 14.3799 93.056 14.0943L48.056 0.594269C47.6341 0.467926 47.1859 0.467926 46.764 0.594269L1.76408 14.0943C0.812667 14.3799 0.16008 15.2555 0.16008 16.2498V49.1878C0.16008 50.2315 0.230392 51.2621 0.267746 52.2992C0.324875 53.8186 0.409469 55.3281 0.544601 56.8288C0.567672 57.0848 0.598434 57.3254 0.623703 57.5781C3.38676 86.1458 20.6946 111.267 46.4048 124.024C47.0376 124.341 47.7825 124.341 48.4164 124.024C51.7815 122.335 55.0312 120.421 58.1404 118.296C58.8468 119.27 59.7389 120.092 60.7661 120.718C58.5194 123.397 58.0283 127.135 59.506 130.304C60.9836 133.473 64.1631 135.499 67.66 135.5H105.91C106.355 135.5 106.789 135.368 107.159 135.122L120.085 126.5H132.91C134.152 126.5 135.16 125.492 135.16 124.25V83.7497C135.16 82.5071 134.152 81.4997 132.91 81.4997ZM84.2131 70.4453L86.8366 76.9997H73.764C78.5419 68.4293 81.0798 58.791 81.1446 48.978L90.16 46.2743V49.1878C90.16 49.669 90.1446 50.148 90.1358 50.6303C86.1148 52.0586 83.4232 55.8576 83.41 60.1247V66.265C83.4089 67.6976 83.6813 69.1159 84.2131 70.4453ZM51.91 85.9997C51.9122 88.298 52.7988 90.5085 54.3852 92.1718C53.5503 92.7793 52.7318 93.4089 51.8694 93.9714L47.41 96.8245L42.9595 93.9648C32.9828 87.5696 25.3967 78.0577 21.3801 66.9088L76.5952 50.3436C76.2876 59.7841 73.5014 68.9775 68.5169 76.9997H60.91C55.9398 76.9997 51.91 81.0295 51.91 85.9997ZM5.88175 62.9086C5.86417 62.7955 5.8433 62.6834 5.82572 62.5747L14.7675 59.8995C15.0323 61.2497 15.3542 62.5999 15.7145 63.9183L6.6442 66.6407C6.34757 65.3498 6.10258 64.1182 5.88175 62.9086ZM4.84465 53.8702L13.7436 51.1994C13.8062 52.6101 13.9095 54.0119 14.0721 55.4017L5.19291 58.0659C5.17094 57.8637 5.15336 57.6638 5.13029 57.4605C5.01603 56.3004 4.91166 55.1226 4.84465 53.8702ZM76.66 27.6261L18.1601 45.1756V29.0862L47.4869 18.6129L76.66 26.946V27.6261ZM76.66 32.3238V36.6261L18.4666 54.0833C18.3249 52.6859 18.237 51.2785 18.2007 49.8624L76.66 32.3238ZM90.16 37.2743V41.5754L81.16 44.2759V39.9736L90.16 37.2743ZM90.16 32.5754L81.16 35.2759V30.9736L90.16 28.2743V32.5754ZM19.0961 58.5921L55.708 47.6102L76.66 41.3238V45.6261L20.0233 62.6175C19.6674 61.2904 19.3499 59.9511 19.0961 58.5921ZM4.66007 17.9241L47.41 5.09866L90.16 17.9241V23.5754L81.16 26.2759V25.2498C81.16 24.2456 80.4942 23.3634 79.5285 23.0877L48.0286 14.0877C47.5781 13.9569 47.0958 13.9712 46.6542 14.1305L15.1542 25.3805C14.2577 25.7002 13.6601 26.5483 13.6601 27.4998V46.5259L4.66007 49.2263V17.9241ZM47.41 119.475C28.0302 109.52 13.6469 91.9718 7.689 71.0144L17.0647 68.2019C21.3911 80.3813 29.6441 90.7754 40.5249 97.7495L46.1927 101.393C46.9343 101.869 47.8857 101.869 48.6273 101.393L54.2951 97.7495L54.3534 97.7111C53.5613 101.444 55.2389 105.266 58.5227 107.211C57.1571 108.83 56.4089 110.881 56.41 113C56.4144 113.313 56.4353 113.625 56.4726 113.936C53.5788 115.982 50.5521 117.834 47.41 119.475ZM105.235 131H67.66C65.1749 131 63.16 128.985 63.16 126.5C63.1556 124.164 64.9563 122.22 67.2865 122.047C68.4961 121.922 69.398 120.877 69.3453 119.662C69.2981 118.453 68.3049 117.499 67.0953 117.5H65.41C62.9249 117.5 60.91 115.485 60.91 113C60.91 110.515 62.9249 108.5 65.41 108.5C66.6526 108.5 67.66 107.492 67.66 106.25C67.66 105.007 66.6526 104 65.41 104H63.16C60.6749 104 58.66 101.985 58.66 99.4997C58.66 97.0146 60.6749 94.9997 63.16 94.9997C64.4026 94.9997 65.41 93.9922 65.41 92.7497C65.41 91.5071 64.4026 90.4997 63.16 90.4997H60.91C58.4249 90.4997 56.41 88.4848 56.41 85.9997C56.41 83.5146 58.4249 81.4997 60.91 81.4997H63.5116C64.8706 81.4997 66.156 82.1006 67.0492 83.1301L76.0491 94.6503C77.5631 96.5531 77.3258 99.2657 75.4636 100.853C75.0538 101.214 74.488 101.315 73.9991 101.315L105.235 131ZM74.5847 121.127C75.9448 121.127 77.2522 120.727 78.409 119.994C80.0745 119.142 81.7895 117.757 83.2221 116.003C84.7009 114.18 85.6545 112.004 86.1763 109.738C86.9014 106.776 86.9256 103.739 85.3721 101.117L88.2912 98.1637C90.7774 100.448 91.9343 103.566 91.9343 106.8C91.9343 108.457 91.8244 110.109 91.6003 111.603C91.1279 114.601 89.7667 117.314 87.799 119.905C85.6852 122.771 83.1155 124.957 80.0932 126.767C77.295 128.472 74.2924 129.735 71.1361 129.735C66.9151 129.735 62.5294 127.854 58.7402 124.832C61.1363 125.578 63.7291 126.148 66.3043 126.148L74.5847 121.127ZM81.8016 110.873C81.8016 105.648 79.6966 101.167 76.0272 97.9682C74.4298 96.6059 72.2369 95.6852 70.0111 95.0722L69.9506 102.255C72.3534 103.025 74.6462 104.302 76.5172 106.109C79.7471 109.084 81.6906 113.339 81.6906 117.965C81.6906 122.701 79.6494 127.425 76.2041 130.547C74.0859 132.777 71.4558 134.069 68.518 134.737C68.3543 134.737 68.1906 134.732 68.0269 134.723C68.4323 131.46 70.3209 128.735 73.1103 126.666C74.4726 125.646 76.1217 124.711 77.9915 124.129C79.333 123.685 80.7579 123.224 82.1498 122.843C83.7407 122.38 85.4787 122.16 87.298 121.984L81.8016 110.873ZM81.8016 107.171C81.6654 107.633 81.4874 108.106 81.2622 108.621C80.6711 109.902 79.6439 111.179 78.3409 111.864C76.6116 112.822 74.789 113.538 72.8532 114.099C72.1853 114.464 71.5755 114.765 70.9669 115.062C70.9669 114.756 70.9669 114.471 70.9669 114.16C70.9669 111.752 70.0089 109.654 68.5543 108.048C66.1659 105.608 62.8381 103.838 59.2555 103.047C57.8316 102.758 56.3221 102.655 54.8247 102.732C56.7319 102.122 58.3777 101.334 60.0696 100.681C61.1506 100.254 62.3053 99.9754 63.5786 99.626C65.7143 99.0679 67.5512 98.3088 69.3892 97.5013C71.2152 96.7124 72.8642 95.594 74.321 94.2559C76.1436 92.7002 77.6652 90.7666 78.7375 88.5727C80.0207 86.3172 80.948 83.6915 81.7522 81.0877C82.319 79.1519 82.9387 77.3348 83.6473 75.5858L81.8016 107.171Z" fill="white"/>
</svg>
